<?xml version="1.0" encoding="UTF-8" standalone="no"?>
<svg
   xmlns:dc="http://purl.org/dc/elements/1.1/"
   xmlns:cc="http://creativecommons.org/ns#"
   xmlns:rdf="http://www.w3.org/1999/02/22-rdf-syntax-ns#"
   xmlns:svg="http://www.w3.org/2000/svg"
   xmlns="http://www.w3.org/2000/svg"
   xmlns:sodipodi="http://sodipodi.sourceforge.net/DTD/sodipodi-0.dtd"
   xmlns:inkscape="http://www.inkscape.org/namespaces/inkscape"
   viewBox="0 0 693.20365 42.397972"
   width="164.78693"
   xml:space="preserve"
   id="svg2"
   version="1.1"
   sodipodi:docname="logo.svg"
   height="42.397972"
   inkscape:export-filename="/home/jlp/gem5/gem5-test-doc/static/images/logo-large.png"
   inkscape:export-xdpi="400.7739"
   inkscape:export-ydpi="400.7739"
   inkscape:version="0.92.2 (5c3e80d, 2017-08-06)"><sodipodi:namedview
     pagecolor="#ffffff"
     bordercolor="#666666"
     borderopacity="1"
     objecttolerance="10"
     gridtolerance="10"
     guidetolerance="10"
     inkscape:pageopacity="0"
     inkscape:pageshadow="2"
     inkscape:window-width="1920"
     inkscape:window-height="1025"
     id="namedview927"
     showgrid="false"
     fit-margin-top="0"
     fit-margin-left="0"
     fit-margin-right="0"
     fit-margin-bottom="0"
     inkscape:zoom="2.4315476"
     inkscape:cx="81.52202"
     inkscape:cy="22.504637"
     inkscape:window-x="0"
     inkscape:window-y="27"
     inkscape:window-maximized="1"
     inkscape:current-layer="svg2" /><metadata
     id="metadata8"><rdf:RDF><cc:Work
         rdf:about=""><dc:format>image/svg+xml</dc:format><dc:type
           rdf:resource="http://purl.org/dc/dcmitype/StillImage" /><dc:title></dc:title></cc:Work></rdf:RDF></metadata><defs
     id="defs6"><clipPath
       id="clipPath18"
       clipPathUnits="userSpaceOnUse"><path
         id="path16"
         d="m 67.937,138.247 c -14.582,-14.587 -14.582,-38.253 0,-52.84 v 0 c 11.31,-11.304 28.04,-13.816 41.797,-7.597 v 0 -13.234 H 69.215 L 58.281,53.572 h 62.455 v 49.056 l -9.449,-9.445 H 75.631 l 45.105,45.125 c -7.285,7.257 -16.824,10.887 -26.365,10.887 v 0 c -9.566,0 -19.134,-3.648 -26.434,-10.948"
         inkscape:connector-curvature="0" /></clipPath><radialGradient
       id="radialGradient28"
       spreadMethod="pad"
       gradientTransform="matrix(40.629776,0,0,-40.629776,88.868164,101.38281)"
       gradientUnits="userSpaceOnUse"
       r="1"
       cy="0"
       cx="0"
       fy="0"
       fx="0"><stop
         id="stop24"
         offset="0"
         style="stop-opacity:1;stop-color:#918f90" /><stop
         id="stop26"
         offset="1"
         style="stop-opacity:1;stop-color:#706d6e" /></radialGradient><clipPath
       id="clipPath38"
       clipPathUnits="userSpaceOnUse"><path
         id="path36"
         d="m 120.78,187.337 v -48.995 l 9.406,9.397 35.649,0.011 -45.081,-45.122 c 14.592,-14.568 38.239,-14.549 52.832,0.032 v 0 c 14.597,14.578 14.597,38.25 0,52.839 v 0 c -11.312,11.302 -28.044,13.814 -41.805,7.599 v 0 13.234 h 40.478 l 10.995,11.005 z"
         inkscape:connector-curvature="0" /></clipPath><radialGradient
       id="radialGradient48"
       spreadMethod="pad"
       gradientTransform="matrix(40.638321,0,0,-40.638321,152.64404,139.52441)"
       gradientUnits="userSpaceOnUse"
       r="1"
       cy="0"
       cx="0"
       fy="0"
       fx="0"><stop
         id="stop44"
         offset="0"
         style="stop-opacity:1;stop-color:#51add5" /><stop
         id="stop46"
         offset="1"
         style="stop-opacity:1;stop-color:#0c8db4" /></radialGradient><clipPath
       id="clipPath58"
       clipPathUnits="userSpaceOnUse"><path
         id="path56"
         d="M 0,252 H 631 V 0 H 0 Z"
         inkscape:connector-curvature="0" /></clipPath></defs><g
     transform="matrix(1.3333333,0,0,-1.3333333,-76.000665,181.80458)"
     id="g10"><g
       id="g12"><g
         clip-path="url(#clipPath18)"
         id="g14"><g
           id="g20"><g
             id="g22"><path
               id="path30"
               style="fill:url(#radialGradient28);stroke:none"
               d="m 67.937,138.247 c -14.582,-14.587 -14.582,-38.253 0,-52.84 v 0 c 11.31,-11.304 28.04,-13.816 41.797,-7.597 v 0 -13.234 H 69.215 L 58.281,53.572 h 62.455 v 49.056 l -9.449,-9.445 H 75.631 l 45.105,45.125 c -7.285,7.257 -16.824,10.887 -26.365,10.887 v 0 c -9.566,0 -19.134,-3.648 -26.434,-10.948"
               inkscape:connector-curvature="0" /></g></g></g></g><g
       id="g32"><g
         clip-path="url(#clipPath38)"
         id="g34"><g
           id="g40"><g
             id="g42"><path
               id="path50"
               style="fill:url(#radialGradient48);stroke:none"
               d="m 120.78,187.337 v -48.995 l 9.406,9.397 35.649,0.011 -45.081,-45.122 c 14.592,-14.568 38.239,-14.549 52.832,0.032 v 0 c 14.597,14.578 14.597,38.25 0,52.839 v 0 c -11.312,11.302 -28.044,13.814 -41.805,7.599 v 0 13.234 h 40.478 l 10.995,11.005 z"
               inkscape:connector-curvature="0" /></g></g></g></g><g
       id="g52"><g
         clip-path="url(#clipPath58)"
         id="g54"><g
           transform="translate(261.584,90.4844)"
           id="g60"><path
             id="path62"
             style="fill:#706d6e;fill-opacity:1;fill-rule:nonzero;stroke:none"
             d="m 0,0 c -10.379,-7.444 -24.895,-6.536 -34.226,2.797 -10.371,10.386 -10.371,27.203 0,37.574 10.378,10.369 27.192,10.369 37.57,0 l 7.753,7.751 c -14.657,14.66 -38.424,14.66 -53.07,0 -14.656,-14.654 -14.656,-38.431 0,-53.073 C -30.611,-16.301 -13.81,-18.82 0,-12.579 v -13.286 h -40.631 l -11.045,-11.048 h 62.719 v 49.296 c 0,0 -2.893,-4.782 -7.699,-9.572 C 2.291,1.753 1.154,0.841 0,0"
             inkscape:connector-curvature="0" /></g><g
           transform="translate(523.959,133.6465)"
           id="g64"><path
             id="path66"
             style="fill:#0c8db4;fill-opacity:1;fill-rule:nonzero;stroke:none"
             d="m 0,0 c 10.377,7.43 24.896,6.523 34.216,-2.801 10.375,-10.38 10.375,-27.204 0,-37.573 -10.384,-10.371 -27.193,-10.371 -37.572,0 l -7.75,-7.749 c 14.671,-14.663 38.423,-14.645 53.059,0 14.655,14.652 14.655,38.416 0,53.055 C 30.613,16.295 13.803,18.802 0,12.574 V 25.86 h 40.623 l 11.043,11.042 h -62.72 v -49.291 c 0,0 2.9,4.778 7.698,9.588 C -2.296,-1.77 -1.184,-0.845 0,0"
             inkscape:connector-curvature="0" /></g><g
           transform="translate(301.3828,130.751)"
           id="g68"><path
             id="path70"
             style="fill:#706d6e;fill-opacity:1;fill-rule:nonzero;stroke:none"
             d="m 0,0 c 10.317,10.309 27.046,10.309 37.353,0 2.252,-2.263 3.974,-4.839 5.239,-7.583 H -5.272 C -3.991,-4.839 -2.261,-2.263 0,0 m 0,-37.373 c -5.154,5.163 -7.738,11.915 -7.738,18.679 h 63.94 c 0,3.756 -0.576,7.49 -1.687,11.111 -1.756,5.647 -4.833,10.979 -9.314,15.438 -14.647,14.661 -38.399,14.661 -53.055,0 -14.651,-14.667 -14.651,-38.43 0,-53.073 14.656,-14.673 38.408,-14.673 53.055,0 l -7.848,7.845 C 27.046,-47.692 10.317,-47.692 0,-37.373"
             inkscape:connector-curvature="0" /></g><g
           transform="translate(463.8438,149.582)"
           id="g72"><path
             id="path74"
             style="fill:#0c8db4;fill-opacity:1;fill-rule:nonzero;stroke:none"
             d="M 0,0 C -13.554,0 -25.387,-7.18 -31.98,-17.937 -38.582,-7.18 -50.411,0 -63.961,0 c -7.729,0 -14.9,-2.333 -20.872,-6.335 -4.489,-3.012 -8.252,-6.997 -11.109,-11.602 V -73.82 h 11.109 v 52.457 c 4.844,6.236 12.371,10.265 20.872,10.265 14.595,0 26.419,-11.843 26.419,-26.427 V -73.82 h 11.109 v 36.295 c 0,14.584 11.83,26.427 26.433,26.427 14.58,0 26.424,-11.843 26.424,-26.427 V -73.82 h 11.092 v 36.295 C 37.516,-16.792 20.72,0 0,0"
             inkscape:connector-curvature="0" /></g></g></g></g></svg>